<svg width="500" height="500" xmlns="http://www.w3.org/2000/svg" preserveAspectRatio="xMidYMid meet" version="1.0">

 <g>
  <title>Layer 1</title>
  <g id="svg_1" fill="#000000" transform="translate(0 500) scale(0.1 -0.1)">
   <path fill="#4f46e5" id="svg_2" d="m2345,4201c-43,-27 -71,-60 -93,-111c-18,-42 -24,-47 -86,-69c-59,-21 -66,-26 -60,-45c4,-11 8,-23 11,-26c3,-4 56,13 121,37c6,3 12,-1 12,-10c0,-8 11,-31 25,-51l25,-37l-55,-90c-30,-49 -55,-91 -55,-94c0,-3 -14,-27 -32,-53l-32,-48l-59,2c-53,2 -61,5 -83,35c-13,17 -25,37 -27,43c-2,7 -13,4 -30,-7l-26,-17l29,-43l30,-42l-20,-40c-25,-49 -25,-71 0,-120c11,-22 20,-41 20,-42c0,-2 -17,-3 -37,-3c-21,0 -52,-9 -69,-19l-30,-19l-94,54c-52,30 -97,54 -101,54c-4,0 -5,18 -2,39c3,25 0,50 -10,69c-17,36 -14,42 72,140c46,53 56,60 73,51c11,-6 34,-9 51,-8c18,2 38,0 44,-4c17,-11 54,15 51,34c-2,9 3,24 11,33c8,9 17,34 20,54c6,34 11,38 58,55c42,16 50,22 45,39c-7,29 -27,32 -73,14c-40,-16 -42,-16 -55,2c-16,24 -74,52 -105,52c-37,0 -103,-37 -122,-69c-19,-32 -23,-102 -7,-132c9,-16 1,-32 -51,-99l-61,-80l-52,6c-59,6 -107,-14 -140,-58c-28,-39 -27,-113 3,-161l23,-37l-29,-114l-28,-113l-40,-11c-103,-29 -157,-96 -158,-194c0,-40 6,-75 16,-95c24,-46 83,-90 137,-103c42,-10 48,-15 54,-43c3,-18 18,-71 32,-119l27,-86l-26,-34c-49,-65 -43,-154 14,-202c39,-33 74,-42 120,-29c37,10 39,9 71,-30c93,-112 95,-116 85,-156c-38,-142 125,-241 225,-136l31,32l111,-39c199,-70 194,-67 206,-104c16,-49 67,-98 123,-119c42,-16 55,-16 103,-6c64,15 116,55 134,103c20,56 24,60 80,77c54,17 68,33 51,60c-7,11 -17,11 -60,-4c-54,-18 -71,-14 -71,13c0,10 -7,28 -16,40c-15,21 -13,26 20,87c35,62 36,64 17,75c-30,15 -38,13 -50,-18c-6,-15 -22,-40 -34,-55c-20,-25 -25,-27 -50,-18l-27,11l0,332l0,333l48,22c26,12 54,27 62,33c12,8 39,-2 123,-46l107,-57l0,-39c0,-21 7,-55 15,-75c19,-46 20,-43 -17,-43c-90,0 -155,-109 -117,-194c10,-21 7,-30 -20,-70l-32,-46l28,-11c23,-9 30,-7 40,8c38,56 38,57 72,45c18,-6 44,-9 60,-6c29,6 48,-12 100,-99c22,-35 22,-40 8,-70c-8,-18 -17,-41 -19,-52c-2,-14 -19,-24 -58,-36c-36,-11 -56,-23 -58,-34c-7,-32 13,-38 73,-21l56,17l35,-30c41,-36 71,-46 119,-37c78,15 130,99 107,173c-10,34 -9,41 15,78c14,22 42,58 60,81c33,39 36,40 72,31c50,-13 84,-3 129,38c35,31 37,37 37,93c0,49 -5,65 -28,95c-26,34 -27,39 -16,82c13,50 13,50 -18,59c-18,6 -23,1 -38,-44c-16,-48 -18,-50 -53,-50c-34,1 -41,6 -91,75c-30,41 -57,75 -61,75c-3,0 -14,-6 -24,-13c-16,-12 -13,-19 34,-91c29,-42 50,-79 48,-81c-2,-2 -47,21 -99,53c-93,55 -96,57 -94,91c1,39 0,39 209,152l90,48l37,-33c20,-18 41,-35 48,-37c9,-3 9,-12 0,-37c-13,-38 -13,-38 21,-47c23,-5 27,-2 40,37c10,29 22,44 35,46c53,8 69,16 110,53c46,42 65,85 65,147c0,81 -65,164 -146,188c-54,15 -54,16 -70,72c-8,31 -22,77 -30,101c-19,60 -18,72 11,111c47,63 25,156 -47,200c-35,21 -93,26 -117,11c-17,-11 -38,9 -102,95c-40,55 -41,55 -28,103c14,57 8,89 -26,130c-51,60 -139,63 -202,8l-34,-30l-156,58c-114,43 -157,64 -161,77c-13,52 -50,104 -87,125c-52,29 -146,31 -190,4zm165,-103c29,-29 32,-36 27,-77c-7,-60 -41,-91 -101,-91c-97,0 -141,110 -69,176c40,37 102,34 143,-8zm276,-167c129,-48 142,-55 147,-79c3,-15 11,-41 18,-59c12,-30 11,-34 -38,-108l-50,-77l-57,-2c-53,-3 -57,-1 -82,31c-27,35 -43,40 -62,21c-9,-9 -6,-22 14,-56c22,-37 24,-48 15,-69c-39,-86 25,-193 117,-193c34,0 40,-8 20,-28c-7,-7 -12,-39 -13,-71l0,-59l-80,-43c-44,-23 -96,-53 -117,-65c-31,-20 -38,-21 -48,-9c-6,8 -31,22 -56,31l-44,17l0,367l0,368l25,4c22,5 31,-3 71,-68c45,-73 46,-73 70,-57c24,15 24,15 6,47c-69,115 -72,124 -57,136c8,6 19,27 25,46c7,20 17,33 24,31c6,-2 75,-28 152,-56zm-942,-12c51,-40 24,-119 -40,-119c-25,0 -64,43 -64,70c0,25 38,70 59,70c10,0 30,-9 45,-21zm1249,12c32,-12 53,-62 38,-90c-14,-26 -42,-41 -75,-41c-53,0 -70,92 -23,125c25,18 28,18 60,6zm-709,-81l26,-10l0,-364l0,-364l-27,-7c-16,-4 -43,-17 -62,-29l-35,-23l-116,66l-117,65l5,42c3,26 -2,52 -12,72c-21,42 -21,42 20,42c83,0 133,66 120,159c-11,74 -9,80 37,150c24,36 63,99 87,139c23,39 44,72 45,72c2,0 15,-4 29,-10zm818,-183c62,-79 65,-85 52,-108c-8,-13 -13,-43 -12,-67l2,-43l-99,-59l-99,-58l-25,19c-14,11 -40,19 -62,19c-43,0 -45,3 -24,40c19,33 19,92 -1,133l-16,34l48,76l49,77l45,0c25,0 52,5 60,10c8,5 15,10 16,10c1,0 30,-37 66,-83zm-1667,-122c46,-46 22,-115 -41,-115c-68,0 -97,68 -49,115c31,32 59,32 90,0zm1886,6c26,-21 32,-79 10,-105c-18,-22 -74,-20 -94,2c-31,35 -26,86 11,106c36,20 45,20 73,-3zm-1323,-28c31,-28 35,-56 11,-86c-25,-33 -70,-36 -99,-7c-26,26 -25,58 2,87c26,27 58,30 86,6zm757,-8c27,-26 31,-46 14,-76c-29,-56 -119,-29 -119,35c0,23 41,66 61,66c11,0 31,-11 44,-25zm419,-127c-4,-7 -27,-44 -52,-82c-24,-37 -42,-69 -40,-71c2,-1 13,-7 25,-14c20,-10 26,-5 74,64c47,67 56,75 85,75c40,0 45,-8 78,-129l24,-91l-21,-11c-12,-6 -36,-24 -52,-40l-30,-28l-142,76c-135,73 -141,77 -145,110c-4,32 -1,36 41,60c25,15 71,41 101,60c61,37 64,38 54,21zm-1577,-50c91,-50 93,-52 93,-88c0,-36 -2,-37 -87,-83c-49,-26 -110,-59 -137,-75l-50,-29l-42,32c-24,18 -49,35 -56,37c-10,4 -8,23 9,90c35,135 37,138 77,138c31,0 39,-6 70,-53c53,-79 70,-93 101,-79l26,12l-56,75c-30,41 -52,75 -48,75c4,0 49,-23 100,-52zm279,-63c33,-51 -15,-116 -70,-95c-66,25 -50,120 20,120c25,0 38,-7 50,-25zm1018,3c21,-29 20,-51 -2,-78c-35,-43 -112,-17 -112,38c0,58 82,87 114,40zm-1148,-143c42,-29 111,-34 147,-11c20,13 31,8 136,-50l114,-63l1,-91l1,-91l-65,-34c-36,-18 -85,-44 -109,-58c-44,-25 -44,-25 -75,-6c-40,24 -93,24 -134,-1c-40,-25 -47,-25 -80,-1c-15,10 -78,44 -140,76c-101,52 -112,60 -105,79c4,11 7,46 7,76l1,54l130,72c72,40 131,73 132,73c1,1 19,-10 39,-24zm1348,-49l138,-73l2,-74l2,-74l-144,-78c-80,-43 -150,-75 -156,-72c-6,3 -22,12 -36,20c-34,20 -79,19 -123,-4l-38,-19l-75,44c-41,24 -90,50 -108,58l-34,14l5,60c3,33 1,74 -5,91c-11,31 -11,32 41,55c29,12 83,41 120,64c64,39 70,41 90,27c40,-28 138,-15 160,21c4,8 11,14 15,14c4,0 69,-33 146,-74zm-1794,-51c37,-19 50,-43 50,-95c0,-34 -6,-48 -34,-76c-56,-56 -136,-41 -171,32c-46,98 57,190 155,139zm2190,0c37,-19 50,-43 50,-95c0,-34 -6,-48 -34,-76c-37,-37 -82,-45 -130,-23c-45,21 -68,96 -46,153c19,50 102,71 160,41zm-1075,-46c57,-56 31,-150 -49,-176c-70,-24 -136,25 -136,100c0,49 13,73 53,98c42,26 92,18 132,-22zm-865,-253c132,-72 135,-74 141,-112c5,-25 3,-42 -5,-47c-45,-30 -181,-105 -184,-102c-3,3 21,39 53,81c54,72 57,78 40,91c-11,7 -24,13 -30,13c-11,0 -59,-60 -98,-123c-15,-24 -23,-28 -55,-25l-37,3l-27,85c-44,136 -45,146 -11,164c16,8 35,22 42,30c8,9 19,16 25,15c6,0 72,-33 146,-73zm663,20c18,-14 44,-27 59,-31c37,-9 39,-33 36,-379l-3,-290l-31,-12l-31,-13l-79,117l-78,117l-1,87c0,85 -1,89 -32,119c-24,25 -42,33 -81,37l-50,4l19,32c11,18 19,49 19,77c0,45 1,46 48,68c26,12 72,38 102,56c30,18 59,34 63,34c5,1 23,-10 40,-23zm-339,-98c9,-12 16,-33 16,-45c0,-28 -33,-63 -60,-63c-28,0 -60,35 -60,67c0,58 72,86 104,41zm1020,-11c19,-26 19,-30 5,-55c-8,-15 -27,-31 -42,-36c-22,-8 -31,-6 -52,14c-29,27 -32,56 -9,88c22,32 70,26 98,-11zm-1071,-164l46,-5l-22,-30c-26,-35 -29,-101 -8,-141c13,-25 11,-30 -34,-99l-47,-73l-64,0l-63,1l-64,74c-62,73 -63,76 -51,105c8,17 13,45 12,63c-3,33 0,36 97,92l100,57l26,-20c15,-10 47,-22 72,-24zm1187,8c119,-62 138,-77 133,-105c-3,-13 0,-41 7,-61c12,-35 10,-39 -24,-88c-70,-100 -73,-102 -146,-100l-65,1l-48,71c-47,69 -47,72 -32,100c21,41 19,100 -5,139c-25,40 -25,41 -1,35c27,-7 88,15 95,33c3,9 9,14 14,12c4,-2 36,-18 72,-37zm-1573,-73c30,-28 29,-58 -2,-92c-28,-30 -54,-33 -83,-8c-32,26 -37,63 -12,95c26,33 65,35 97,5zm568,2c26,-29 22,-70 -10,-97c-31,-27 -59,-24 -87,9c-24,27 -23,57 4,85c26,28 69,30 93,3zm752,-2c28,-26 29,-58 5,-88c-37,-46 -112,-15 -112,46c0,30 33,64 62,64c12,0 32,-10 45,-22zm559,14c40,-26 38,-92 -2,-119c-33,-21 -79,-2 -93,39c-11,31 -9,40 17,71c15,17 58,23 78,9zm-1252,-234c18,-29 54,-87 79,-128l46,-74l-20,-32c-10,-17 -19,-39 -19,-48c0,-20 -2,-20 -130,26c-47,16 -104,37 -128,45c-32,11 -44,21 -48,41c-4,15 -13,37 -20,49c-13,20 -10,28 26,84c22,34 40,66 40,72c0,5 16,7 38,4c20,-2 48,-1 62,3c14,4 28,8 32,9c4,1 23,-23 42,-51zm-316,-144c48,-33 17,-114 -44,-114c-23,0 -64,42 -64,65c0,23 41,65 64,65c12,0 32,-7 44,-16zm1264,-1c27,-24 24,-79 -6,-99c-33,-21 -65,-15 -89,17c-45,61 38,133 95,82zm-615,-109c48,-31 56,-97 17,-143c-48,-58 -135,-47 -170,21c-13,26 -14,38 -5,70c22,71 94,95 158,52z"/>
   <path fill="#4f46e5" id="svg_3" d="m2747,3774c-12,-12 -8,-42 6,-47c21,-8 39,8 35,29c-3,19 -29,30 -41,18z"/>
   <path fill="#4f46e5" id="svg_4" d="m2610,3250c0,-13 7,-20 20,-20c13,0 20,7 20,20c0,13 -7,20 -20,20c-13,0 -20,-7 -20,-20z"/>
   <path fill="#4f46e5" id="svg_5" d="m2225,3260c-9,-15 4,-30 26,-30c12,0 19,7 19,20c0,21 -33,29 -45,10z"/>
   <path fill="#4f46e5" id="svg_6" d="m3070,3510c0,-24 29,-38 40,-20c12,19 1,40 -21,40c-12,0 -19,-7 -19,-20z"/>
   <path fill="#4f46e5" id="svg_7" d="m1683,2934c-3,-8 -1,-20 5,-26c16,-16 42,-2 42,22c0,24 -38,28 -47,4z"/>
   <path fill="#4f46e5" id="svg_8" d="m1874,2935c-4,-9 -2,-21 4,-27c15,-15 44,-1 40,19c-4,23 -36,29 -44,8z"/>
   <path fill="#4f46e5" id="svg_9" d="m2064,2939c-8,-14 21,-43 35,-35c6,4 11,16 11,27c0,21 -34,27 -46,8z"/>
   <path fill="#4f46e5" id="svg_10" d="m2772,2928c5,-34 38,-37 38,-4c0,20 -5,26 -21,26c-15,0 -20,-5 -17,-22z"/>
   <path fill="#4f46e5" id="svg_11" d="m2962,2928c4,-27 33,-36 42,-13c8,22 -1,35 -25,35c-15,0 -20,-6 -17,-22z"/>
   <path fill="#4f46e5" id="svg_12" d="m3152,2928c2,-15 10,-23 23,-23c30,0 27,39 -3,43c-20,3 -23,0 -20,-20z"/>
   <path fill="#4f46e5" id="svg_13" d="m2225,2600c-9,-15 14,-40 31,-33c22,8 18,43 -5,43c-11,0 -23,-5 -26,-10z"/>
   <path fill="#4f46e5" id="svg_14" d="m1762,2348c2,-13 10,-23 18,-23c8,0 16,10 18,23c3,17 -2,22 -18,22c-16,0 -21,-5 -18,-22z"/>
   <path fill="#4f46e5" id="svg_15" d="m3072,2348c2,-15 10,-23 23,-23c30,0 27,39 -3,43c-20,3 -23,0 -20,-20z"/>
   <path fill="#4f46e5" id="svg_16" d="m2083,2114c-3,-8 -1,-20 5,-26c16,-16 42,-2 42,22c0,24 -38,28 -47,4z"/>
   <path fill="#4f46e5" id="svg_17" d="m2090,3770c-12,-7 -12,-13 -4,-27c16,-26 39,-22 39,6c0,27 -13,35 -35,21z"/>
   <path fill="#4f46e5" id="svg_18" d="m1760,3511c0,-26 17,-36 35,-21c18,15 8,40 -16,40c-12,0 -19,-7 -19,-19z"/>
   <path fill="#4f46e5" id="svg_19" d="m2610,2592c0,-24 8,-32 26,-25c22,8 17,43 -6,43c-13,0 -20,-7 -20,-18z"/>
   <path fill="#4f46e5" id="svg_20" d="m2743,2114c-3,-8 -1,-20 5,-26c16,-16 42,-2 42,22c0,24 -38,28 -47,4z"/>
   <path fill="#4f46e5" id="svg_21" d="m1068,1428c-9,-7 -39,-65 -68,-128c-29,-63 -77,-168 -107,-232c-31,-65 -53,-127 -51,-140c3,-21 8,-23 53,-23l50,0l28,53l28,52l104,0l103,0l31,-55c29,-52 33,-55 70,-55c54,0 69,20 51,68c-17,51 -188,422 -206,450c-16,25 -60,30 -86,10zm75,-245l26,-63l-59,0c-33,0 -60,3 -60,8c0,18 55,131 60,124c4,-4 19,-35 33,-69z"/>
   <path fill="#4f46e5" id="svg_22" d="m1498,1429c-16,-9 -18,-32 -18,-257c0,-180 3,-251 12,-260c17,-17 74,-15 92,4c11,10 16,34 16,75l0,59l68,0c119,1 195,56 208,153c15,107 -52,204 -157,226c-63,14 -198,14 -221,0zm236,-140c33,-38 33,-73 1,-104c-20,-21 -34,-25 -80,-25l-55,0l0,80l0,80l54,0c48,0 57,-3 80,-31z"/>
   <path fill="#4f46e5" id="svg_23" d="m2137,1424c-66,-20 -141,-94 -158,-154c-16,-56 -16,-142 -1,-196c28,-97 141,-174 257,-174c111,0 195,54 251,160c30,57 26,162 -9,230c-32,62 -89,116 -145,136c-48,17 -135,16 -195,-2zm180,-126c38,-26 73,-90 73,-134c0,-37 -38,-100 -76,-124c-39,-27 -118,-26 -161,0c-88,53 -90,197 -4,256c48,32 121,33 168,2z"/>
   <path fill="#4f46e5" id="svg_24" d="m2620,1430c-13,-8 -15,-49 -18,-249c-2,-159 1,-247 8,-261c12,-23 78,-28 98,-8c9,9 12,80 12,260c0,234 -1,248 -19,258c-24,12 -61,13 -81,0z"/>
   <path fill="#4f46e5" id="svg_25" d="m2993,1419c-93,-36 -173,-151 -173,-249c0,-46 28,-124 60,-167c43,-58 136,-103 214,-103c167,0 286,125 274,287c-6,87 -34,142 -99,193c-81,64 -176,77 -276,39zm188,-122c127,-85 66,-279 -87,-279c-108,0 -178,124 -125,222c41,78 141,105 212,57z"/>
   <path fill="#4f46e5" id="svg_26" d="m3488,1433c-23,-6 -34,-48 -22,-82l9,-26l133,-3l133,-3l-48,-57c-26,-31 -90,-104 -140,-161c-77,-86 -93,-110 -93,-137c0,-59 18,-64 245,-64c233,0 238,2 233,70l-3,45l-149,5l-149,5l94,101c175,187 220,244 213,268c-13,43 -27,46 -238,45c-111,-1 -209,-3 -218,-6z"/>
  </g>
 </g>
</svg>